<svg xmlns="http://www.w3.org/2000/svg" xmlns:xlink="http://www.w3.org/1999/xlink" width="2000" zoomAndPan="magnify" viewBox="0 0 1500 1499.999933" height="2000" preserveAspectRatio="xMidYMid meet" version="1.0"><defs><g/><clipPath id="57ed464607"><path d="M 750 0 C 335.785156 0 0 335.785156 0 750 C 0 1164.214844 335.785156 1500 750 1500 C 1164.214844 1500 1500 1164.214844 1500 750 C 1500 335.785156 1164.214844 0 750 0 Z M 750 0 " clip-rule="nonzero"/></clipPath><clipPath id="56156ec9c9"><path d="M 0 0 L 1500 0 L 1500 1500 L 0 1500 Z M 0 0 " clip-rule="nonzero"/></clipPath><clipPath id="849881bca2"><path d="M 750 0 C 335.785156 0 0 335.785156 0 750 C 0 1164.214844 335.785156 1500 750 1500 C 1164.214844 1500 1500 1164.214844 1500 750 C 1500 335.785156 1164.214844 0 750 0 Z M 750 0 " clip-rule="nonzero"/></clipPath><clipPath id="a4b9e1fc2c"><rect x="0" width="1500" y="0" height="1500"/></clipPath><clipPath id="282fb20754"><rect x="0" width="636" y="0" height="570"/></clipPath></defs><g clip-path="url(#57ed464607)"><g transform="matrix(1, 0, 0, 1, 0, 0.000000000000112861)"><g clip-path="url(#a4b9e1fc2c)"><g clip-path="url(#56156ec9c9)"><g clip-path="url(#849881bca2)"><rect x="-330" width="2160" fill="#0e0f11" height="2159.999904" y="-329.999985" fill-opacity="1"/></g></g></g></g></g><g transform="matrix(1, 0, 0, 1, 432, 464)"><g clip-path="url(#282fb20754)"><g fill="#ffffff" fill-opacity="1"><g transform="translate(0.12462, 452.522861)"><g><path d="M 13.140625 -337.578125 C 13.140625 -340.703125 14.15625 -343.28125 16.1875 -345.3125 C 18.226562 -347.351562 21.128906 -348.375 24.890625 -348.375 L 305.640625 -348.375 C 309.398438 -348.375 312.296875 -347.351562 314.328125 -345.3125 C 316.359375 -343.28125 317.375 -340.703125 317.375 -337.578125 L 317.375 -281.703125 C 317.375 -275.753906 313.929688 -272.78125 307.046875 -272.78125 L 223.953125 -272.78125 C 220.191406 -272.78125 218.3125 -271.210938 218.3125 -268.078125 L 218.3125 -10.328125 C 218.3125 -6.890625 217.53125 -4.304688 215.96875 -2.578125 C 214.40625 -0.859375 212.210938 0 209.390625 0 L 120.1875 0 C 114.550781 0 111.734375 -3.128906 111.734375 -9.390625 L 111.734375 -266.203125 C 111.734375 -270.585938 110.015625 -272.78125 106.578125 -272.78125 L 23.9375 -272.78125 C 16.738281 -272.78125 13.140625 -275.753906 13.140625 -281.703125 Z M 13.140625 -337.578125 "/></g></g></g><g fill="#ffffff" fill-opacity="1"><g transform="translate(330.647135, 452.522861)"><g><path d="M 24.40625 -337.578125 C 24.40625 -341.015625 25.1875 -343.671875 26.75 -345.546875 C 28.320312 -347.429688 30.515625 -348.375 33.328125 -348.375 L 283.578125 -348.375 C 289.210938 -348.375 292.03125 -345.085938 292.03125 -338.515625 L 291.5625 -284.046875 C 291.5625 -275.597656 287.648438 -271.375 279.828125 -271.375 L 141.78125 -271.375 C 134.582031 -271.375 130.984375 -268.398438 130.984375 -262.453125 L 130.984375 -218.3125 C 130.984375 -212.050781 133.800781 -208.921875 139.4375 -208.921875 L 225.359375 -208.921875 C 231.617188 -208.921875 234.75 -205.789062 234.75 -199.53125 L 234.75 -142.265625 C 234.75 -136.941406 231.929688 -134.28125 226.296875 -134.28125 L 138.5 -134.28125 C 136.3125 -134.28125 134.507812 -133.648438 133.09375 -132.390625 C 131.6875 -131.140625 130.984375 -129.421875 130.984375 -127.234375 L 130.984375 -13.609375 C 130.984375 -8.609375 129.734375 -5.085938 127.234375 -3.046875 C 124.734375 -1.015625 120.820312 0 115.5 0 L 37.09375 0 C 32.394531 0 29.101562 -0.9375 27.21875 -2.8125 C 25.34375 -4.695312 24.40625 -7.671875 24.40625 -11.734375 Z M 24.40625 -337.578125 "/></g></g></g></g></g></svg>