<svg xmlns="http://www.w3.org/2000/svg" xmlns:xlink="http://www.w3.org/1999/xlink" width="2000" zoomAndPan="magnify" viewBox="0 0 1500 1499.999933" height="2000" preserveAspectRatio="xMidYMid meet" version="1.0"><defs><g/><clipPath id="7c5b1379f1"><path d="M 750 0 C 335.785156 0 0 335.785156 0 750 C 0 1164.214844 335.785156 1500 750 1500 C 1164.214844 1500 1500 1164.214844 1500 750 C 1500 335.785156 1164.214844 0 750 0 Z M 750 0 " clip-rule="nonzero"/></clipPath><clipPath id="81557446a9"><path d="M 0 0 L 1500 0 L 1500 1500 L 0 1500 Z M 0 0 " clip-rule="nonzero"/></clipPath><clipPath id="de43bf8f2d"><path d="M 750 0 C 335.785156 0 0 335.785156 0 750 C 0 1164.214844 335.785156 1500 750 1500 C 1164.214844 1500 1500 1164.214844 1500 750 C 1500 335.785156 1164.214844 0 750 0 Z M 750 0 " clip-rule="nonzero"/></clipPath><clipPath id="a66ff32bda"><rect x="0" width="1500" y="0" height="1500"/></clipPath><clipPath id="f555becd71"><rect x="0" width="1276" y="0" height="1141"/></clipPath></defs><g clip-path="url(#7c5b1379f1)"><g transform="matrix(1, 0, 0, 1, 0, 0.000000000000112861)"><g clip-path="url(#a66ff32bda)"><g clip-path="url(#81557446a9)"><g clip-path="url(#de43bf8f2d)"><rect x="-330" width="2160" fill="none" height="2159.999904" y="-329.999985" fill-opacity="0"/></g></g></g></g></g><g transform="matrix(1, 0, 0, 1, 112, 240)"><g clip-path="url(#f555becd71)"><g fill="#ffffff" fill-opacity="1"><g transform="translate(0.717215, 906.348396)"><g><path d="M 26.359375 -676.75 C 26.359375 -683.03125 28.394531 -688.207031 32.46875 -692.28125 C 36.550781 -696.363281 42.359375 -698.40625 49.890625 -698.40625 L 612.75 -698.40625 C 620.28125 -698.40625 626.082031 -696.363281 630.15625 -692.28125 C 634.238281 -688.207031 636.28125 -683.03125 636.28125 -676.75 L 636.28125 -564.75 C 636.28125 -552.820312 629.378906 -546.859375 615.578125 -546.859375 L 448.984375 -546.859375 C 441.453125 -546.859375 437.6875 -543.722656 437.6875 -537.453125 L 437.6875 -20.703125 C 437.6875 -13.804688 436.117188 -8.628906 432.984375 -5.171875 C 429.847656 -1.722656 425.453125 0 419.796875 0 L 240.96875 0 C 229.664062 0 224.015625 -6.273438 224.015625 -18.828125 L 224.015625 -533.6875 C 224.015625 -542.46875 220.566406 -546.859375 213.671875 -546.859375 L 48 -546.859375 C 33.570312 -546.859375 26.359375 -552.820312 26.359375 -564.75 Z M 26.359375 -676.75 "/></g></g></g><g fill="#ffffff" fill-opacity="1"><g transform="translate(663.355248, 906.348396)"><g><path d="M 48.953125 -676.75 C 48.953125 -683.65625 50.519531 -688.988281 53.65625 -692.75 C 56.789062 -696.519531 61.179688 -698.40625 66.828125 -698.40625 L 568.515625 -698.40625 C 579.804688 -698.40625 585.453125 -691.816406 585.453125 -678.640625 L 584.515625 -569.453125 C 584.515625 -552.503906 576.671875 -544.03125 560.984375 -544.03125 L 284.265625 -544.03125 C 269.828125 -544.03125 262.609375 -538.070312 262.609375 -526.15625 L 262.609375 -437.6875 C 262.609375 -425.132812 268.257812 -418.859375 279.5625 -418.859375 L 451.8125 -418.859375 C 464.351562 -418.859375 470.625 -412.582031 470.625 -400.03125 L 470.625 -285.203125 C 470.625 -274.535156 464.976562 -269.203125 453.6875 -269.203125 L 277.671875 -269.203125 C 273.273438 -269.203125 269.664062 -267.945312 266.84375 -265.4375 C 264.019531 -262.925781 262.609375 -259.472656 262.609375 -255.078125 L 262.609375 -27.296875 C 262.609375 -17.253906 260.097656 -10.191406 255.078125 -6.109375 C 250.054688 -2.035156 242.210938 0 231.546875 0 L 74.359375 0 C 64.941406 0 58.351562 -1.878906 54.59375 -5.640625 C 50.832031 -9.410156 48.953125 -15.375 48.953125 -23.53125 Z M 48.953125 -676.75 "/></g></g></g></g></g></svg>